<mxfile host="app.diagrams.net" agent="Mozilla/5.0 (Windows NT 10.0; Win64; x64) AppleWebKit/537.36 (KHTML, like Gecko) Chrome/128.0.0.0 Safari/537.36" version="24.7.10">
  <diagram name="Page-1" id="s9K7G1fNYEltuWzhAecm">
    <mxGraphModel dx="2530" dy="499" grid="1" gridSize="10" guides="1" tooltips="1" connect="1" arrows="1" fold="1" page="1" pageScale="1" pageWidth="850" pageHeight="1100" math="0" shadow="0">
      <root>
        <mxCell id="0" />
        <mxCell id="1" parent="0" />
        <mxCell id="pEyvCu6OSAiKHPFv_T5z-1" value="Engine" style="swimlane;fontStyle=1;align=center;verticalAlign=top;childLayout=stackLayout;horizontal=1;startSize=26;horizontalStack=0;resizeParent=1;resizeParentMax=0;resizeLast=0;collapsible=1;marginBottom=0;whiteSpace=wrap;html=1;" parent="1" vertex="1">
          <mxGeometry x="-10" y="130" width="300" height="170" as="geometry">
            <mxRectangle x="-10" y="130" width="80" height="30" as="alternateBounds" />
          </mxGeometry>
        </mxCell>
        <mxCell id="pEyvCu6OSAiKHPFv_T5z-2" value="&lt;div&gt;- actorContainer: ActorContainer&lt;br&gt;&lt;/div&gt;&lt;div&gt;- gameLogic: GameLogicBase&lt;br&gt;&lt;/div&gt;- input: InputModuleBase&lt;div&gt;- renderer: RendererModuleBase&lt;/div&gt;&lt;div&gt;- window: WindowModuleBase&lt;/div&gt;" style="text;strokeColor=none;fillColor=none;align=left;verticalAlign=top;spacingLeft=4;spacingRight=4;overflow=hidden;rotatable=0;points=[[0,0.5],[1,0.5]];portConstraint=eastwest;whiteSpace=wrap;html=1;" parent="pEyvCu6OSAiKHPFv_T5z-1" vertex="1">
          <mxGeometry y="26" width="300" height="84" as="geometry" />
        </mxCell>
        <mxCell id="pEyvCu6OSAiKHPFv_T5z-3" value="" style="line;strokeWidth=1;fillColor=none;align=left;verticalAlign=middle;spacingTop=-1;spacingLeft=3;spacingRight=3;rotatable=0;labelPosition=right;points=[];portConstraint=eastwest;strokeColor=inherit;" parent="pEyvCu6OSAiKHPFv_T5z-1" vertex="1">
          <mxGeometry y="110" width="300" height="8" as="geometry" />
        </mxCell>
        <mxCell id="pEyvCu6OSAiKHPFv_T5z-4" value="+ Run(): void&lt;div&gt;+ SetModules(modules: EngineModulesBase): void&lt;/div&gt;&lt;div&gt;+ SetGameLogic(gameLogic: GameLogicBase): void&lt;/div&gt;" style="text;strokeColor=none;fillColor=none;align=left;verticalAlign=top;spacingLeft=4;spacingRight=4;overflow=hidden;rotatable=0;points=[[0,0.5],[1,0.5]];portConstraint=eastwest;whiteSpace=wrap;html=1;" parent="pEyvCu6OSAiKHPFv_T5z-1" vertex="1">
          <mxGeometry y="118" width="300" height="52" as="geometry" />
        </mxCell>
        <mxCell id="pEyvCu6OSAiKHPFv_T5z-5" value="" style="endArrow=diamondThin;endFill=1;endSize=24;html=1;rounded=0;" parent="1" source="pEyvCu6OSAiKHPFv_T5z-6" target="pEyvCu6OSAiKHPFv_T5z-1" edge="1">
          <mxGeometry width="160" relative="1" as="geometry">
            <mxPoint x="290" y="50" as="sourcePoint" />
            <mxPoint x="440" y="170" as="targetPoint" />
            <Array as="points">
              <mxPoint x="140" y="50" />
            </Array>
          </mxGeometry>
        </mxCell>
        <mxCell id="pEyvCu6OSAiKHPFv_T5z-6" value="InputModuleBase" style="swimlane;fontStyle=1;align=center;verticalAlign=top;childLayout=stackLayout;horizontal=1;startSize=26;horizontalStack=0;resizeParent=1;resizeParentMax=0;resizeLast=0;collapsible=1;marginBottom=0;whiteSpace=wrap;html=1;" parent="1" vertex="1">
          <mxGeometry x="340" y="10" width="160" height="80" as="geometry" />
        </mxCell>
        <mxCell id="pEyvCu6OSAiKHPFv_T5z-9" value="&lt;div&gt;+ Process(): void&lt;/div&gt;&lt;div&gt;+ Terminate(): void&lt;/div&gt;+ TryInitialize(): bool" style="text;strokeColor=none;fillColor=none;align=left;verticalAlign=top;spacingLeft=4;spacingRight=4;overflow=hidden;rotatable=0;points=[[0,0.5],[1,0.5]];portConstraint=eastwest;whiteSpace=wrap;html=1;" parent="pEyvCu6OSAiKHPFv_T5z-6" vertex="1">
          <mxGeometry y="26" width="160" height="54" as="geometry" />
        </mxCell>
        <mxCell id="pEyvCu6OSAiKHPFv_T5z-10" value="RendererModuleBase" style="swimlane;fontStyle=1;align=center;verticalAlign=top;childLayout=stackLayout;horizontal=1;startSize=26;horizontalStack=0;resizeParent=1;resizeParentMax=0;resizeLast=0;collapsible=1;marginBottom=0;whiteSpace=wrap;html=1;" parent="1" vertex="1">
          <mxGeometry x="340" y="165" width="160" height="100" as="geometry">
            <mxRectangle x="360" y="127" width="160" height="30" as="alternateBounds" />
          </mxGeometry>
        </mxCell>
        <mxCell id="pEyvCu6OSAiKHPFv_T5z-11" value="&lt;div&gt;+ ClearScreen(): void&lt;/div&gt;&lt;div&gt;+ Process(): void&lt;/div&gt;&lt;div&gt;+ Terminate(): void&lt;/div&gt;+ TryInitialize(): bool" style="text;strokeColor=none;fillColor=none;align=left;verticalAlign=top;spacingLeft=4;spacingRight=4;overflow=hidden;rotatable=0;points=[[0,0.5],[1,0.5]];portConstraint=eastwest;whiteSpace=wrap;html=1;" parent="pEyvCu6OSAiKHPFv_T5z-10" vertex="1">
          <mxGeometry y="26" width="160" height="74" as="geometry" />
        </mxCell>
        <mxCell id="pEyvCu6OSAiKHPFv_T5z-12" value="WindowModuleBase" style="swimlane;fontStyle=1;align=center;verticalAlign=top;childLayout=stackLayout;horizontal=1;startSize=26;horizontalStack=0;resizeParent=1;resizeParentMax=0;resizeLast=0;collapsible=1;marginBottom=0;whiteSpace=wrap;html=1;" parent="1" vertex="1">
          <mxGeometry x="340" y="330" width="160" height="100" as="geometry" />
        </mxCell>
        <mxCell id="pEyvCu6OSAiKHPFv_T5z-13" value="&lt;div&gt;+ IsRunning(): bool&lt;/div&gt;&lt;div&gt;+ Process(): void&lt;/div&gt;&lt;div&gt;+ Terminate(): void&lt;/div&gt;+ TryInitialize(): bool" style="text;strokeColor=none;fillColor=none;align=left;verticalAlign=top;spacingLeft=4;spacingRight=4;overflow=hidden;rotatable=0;points=[[0,0.5],[1,0.5]];portConstraint=eastwest;whiteSpace=wrap;html=1;" parent="pEyvCu6OSAiKHPFv_T5z-12" vertex="1">
          <mxGeometry y="26" width="160" height="74" as="geometry" />
        </mxCell>
        <mxCell id="pEyvCu6OSAiKHPFv_T5z-14" value="" style="endArrow=diamondThin;endFill=1;endSize=24;html=1;rounded=0;" parent="1" source="pEyvCu6OSAiKHPFv_T5z-10" target="pEyvCu6OSAiKHPFv_T5z-1" edge="1">
          <mxGeometry width="160" relative="1" as="geometry">
            <mxPoint x="150" y="340" as="sourcePoint" />
            <mxPoint x="310" y="340" as="targetPoint" />
          </mxGeometry>
        </mxCell>
        <mxCell id="pEyvCu6OSAiKHPFv_T5z-15" value="" style="endArrow=diamondThin;endFill=1;endSize=24;html=1;rounded=0;" parent="1" source="pEyvCu6OSAiKHPFv_T5z-12" target="pEyvCu6OSAiKHPFv_T5z-1" edge="1">
          <mxGeometry width="160" relative="1" as="geometry">
            <mxPoint x="130" y="310" as="sourcePoint" />
            <mxPoint x="290" y="310" as="targetPoint" />
            <Array as="points">
              <mxPoint x="140" y="380" />
            </Array>
          </mxGeometry>
        </mxCell>
        <mxCell id="pEyvCu6OSAiKHPFv_T5z-16" value="InputBase" style="swimlane;fontStyle=1;align=center;verticalAlign=top;childLayout=stackLayout;horizontal=1;startSize=26;horizontalStack=0;resizeParent=1;resizeParentMax=0;resizeLast=0;collapsible=1;marginBottom=0;whiteSpace=wrap;html=1;" parent="1" vertex="1">
          <mxGeometry x="590" y="24" width="230" height="52" as="geometry" />
        </mxCell>
        <mxCell id="pEyvCu6OSAiKHPFv_T5z-17" value="+ IsKeyPressed(key: KeyboardKey): bool" style="text;strokeColor=none;fillColor=none;align=left;verticalAlign=top;spacingLeft=4;spacingRight=4;overflow=hidden;rotatable=0;points=[[0,0.5],[1,0.5]];portConstraint=eastwest;whiteSpace=wrap;html=1;" parent="pEyvCu6OSAiKHPFv_T5z-16" vertex="1">
          <mxGeometry y="26" width="230" height="26" as="geometry" />
        </mxCell>
        <mxCell id="pEyvCu6OSAiKHPFv_T5z-20" value="Extends" style="endArrow=block;endSize=16;endFill=0;html=1;rounded=0;" parent="1" source="pEyvCu6OSAiKHPFv_T5z-6" target="pEyvCu6OSAiKHPFv_T5z-16" edge="1">
          <mxGeometry width="160" relative="1" as="geometry">
            <mxPoint x="180" y="280" as="sourcePoint" />
            <mxPoint x="340" y="280" as="targetPoint" />
          </mxGeometry>
        </mxCell>
        <mxCell id="pEyvCu6OSAiKHPFv_T5z-21" value="RendererBase" style="swimlane;fontStyle=1;align=center;verticalAlign=top;childLayout=stackLayout;horizontal=1;startSize=26;horizontalStack=0;resizeParent=1;resizeParentMax=0;resizeLast=0;collapsible=1;marginBottom=0;whiteSpace=wrap;html=1;" parent="1" vertex="1">
          <mxGeometry x="590" y="180" width="250" height="70" as="geometry" />
        </mxCell>
        <mxCell id="pEyvCu6OSAiKHPFv_T5z-22" value="+ SetBackgroundColor(color: Color): bool&lt;div&gt;+ GetSpriteRenderer(): SpriteRendererBase&lt;/div&gt;" style="text;strokeColor=none;fillColor=none;align=left;verticalAlign=top;spacingLeft=4;spacingRight=4;overflow=hidden;rotatable=0;points=[[0,0.5],[1,0.5]];portConstraint=eastwest;whiteSpace=wrap;html=1;" parent="pEyvCu6OSAiKHPFv_T5z-21" vertex="1">
          <mxGeometry y="26" width="250" height="44" as="geometry" />
        </mxCell>
        <mxCell id="pEyvCu6OSAiKHPFv_T5z-25" value="Extends" style="endArrow=block;endSize=16;endFill=0;html=1;rounded=0;" parent="1" source="pEyvCu6OSAiKHPFv_T5z-10" target="pEyvCu6OSAiKHPFv_T5z-21" edge="1">
          <mxGeometry width="160" relative="1" as="geometry">
            <mxPoint x="520" y="293" as="sourcePoint" />
            <mxPoint x="680" y="293" as="targetPoint" />
          </mxGeometry>
        </mxCell>
        <mxCell id="pEyvCu6OSAiKHPFv_T5z-26" value="WindowBase" style="swimlane;fontStyle=1;align=center;verticalAlign=top;childLayout=stackLayout;horizontal=1;startSize=26;horizontalStack=0;resizeParent=1;resizeParentMax=0;resizeLast=0;collapsible=1;marginBottom=0;whiteSpace=wrap;html=1;" parent="1" vertex="1">
          <mxGeometry x="590" y="354" width="160" height="52" as="geometry" />
        </mxCell>
        <mxCell id="pEyvCu6OSAiKHPFv_T5z-29" value="+ SetTitle(title: string): void" style="text;strokeColor=none;fillColor=none;align=left;verticalAlign=top;spacingLeft=4;spacingRight=4;overflow=hidden;rotatable=0;points=[[0,0.5],[1,0.5]];portConstraint=eastwest;whiteSpace=wrap;html=1;" parent="pEyvCu6OSAiKHPFv_T5z-26" vertex="1">
          <mxGeometry y="26" width="160" height="26" as="geometry" />
        </mxCell>
        <mxCell id="pEyvCu6OSAiKHPFv_T5z-30" value="Extends" style="endArrow=block;endSize=16;endFill=0;html=1;rounded=0;" parent="1" source="pEyvCu6OSAiKHPFv_T5z-12" target="pEyvCu6OSAiKHPFv_T5z-26" edge="1">
          <mxGeometry width="160" relative="1" as="geometry">
            <mxPoint x="350" y="476" as="sourcePoint" />
            <mxPoint x="510" y="476" as="targetPoint" />
          </mxGeometry>
        </mxCell>
        <mxCell id="pEyvCu6OSAiKHPFv_T5z-31" value="" style="endArrow=block;dashed=1;endFill=0;endSize=12;html=1;rounded=0;" parent="1" source="pEyvCu6OSAiKHPFv_T5z-36" target="pEyvCu6OSAiKHPFv_T5z-6" edge="1">
          <mxGeometry width="160" relative="1" as="geometry">
            <mxPoint x="420" y="144" as="sourcePoint" />
            <mxPoint x="470" y="170" as="targetPoint" />
          </mxGeometry>
        </mxCell>
        <mxCell id="pEyvCu6OSAiKHPFv_T5z-36" value="&lt;p style=&quot;margin:0px;margin-top:4px;text-align:center;&quot;&gt;&lt;b&gt;OpenGLInputModule&lt;/b&gt;&lt;/p&gt;" style="verticalAlign=top;align=left;overflow=fill;html=1;whiteSpace=wrap;" parent="1" vertex="1">
          <mxGeometry x="350" y="120" width="140" height="20" as="geometry" />
        </mxCell>
        <mxCell id="pEyvCu6OSAiKHPFv_T5z-37" value="&lt;p style=&quot;margin:0px;margin-top:4px;text-align:center;&quot;&gt;&lt;b&gt;OpenGLRendererModule&lt;/b&gt;&lt;/p&gt;" style="verticalAlign=top;align=left;overflow=fill;html=1;whiteSpace=wrap;" parent="1" vertex="1">
          <mxGeometry x="345" y="290" width="150" height="20" as="geometry" />
        </mxCell>
        <mxCell id="pEyvCu6OSAiKHPFv_T5z-38" value="&lt;p style=&quot;margin:0px;margin-top:4px;text-align:center;&quot;&gt;&lt;b&gt;OpenGLWindowModule&lt;/b&gt;&lt;/p&gt;" style="verticalAlign=top;align=left;overflow=fill;html=1;whiteSpace=wrap;" parent="1" vertex="1">
          <mxGeometry x="345" y="460" width="150" height="20" as="geometry" />
        </mxCell>
        <mxCell id="pEyvCu6OSAiKHPFv_T5z-39" value="" style="endArrow=block;dashed=1;endFill=0;endSize=12;html=1;rounded=0;" parent="1" source="pEyvCu6OSAiKHPFv_T5z-37" target="pEyvCu6OSAiKHPFv_T5z-10" edge="1">
          <mxGeometry width="160" relative="1" as="geometry">
            <mxPoint x="100" y="350" as="sourcePoint" />
            <mxPoint x="260" y="350" as="targetPoint" />
          </mxGeometry>
        </mxCell>
        <mxCell id="pEyvCu6OSAiKHPFv_T5z-40" value="" style="endArrow=block;dashed=1;endFill=0;endSize=12;html=1;rounded=0;" parent="1" source="pEyvCu6OSAiKHPFv_T5z-38" target="pEyvCu6OSAiKHPFv_T5z-12" edge="1">
          <mxGeometry width="160" relative="1" as="geometry">
            <mxPoint x="110" y="460" as="sourcePoint" />
            <mxPoint x="270" y="460" as="targetPoint" />
          </mxGeometry>
        </mxCell>
        <mxCell id="pEyvCu6OSAiKHPFv_T5z-41" value="Actor" style="swimlane;fontStyle=1;align=center;verticalAlign=top;childLayout=stackLayout;horizontal=1;startSize=26;horizontalStack=0;resizeParent=1;resizeParentMax=0;resizeLast=0;collapsible=1;marginBottom=0;whiteSpace=wrap;html=1;" parent="1" vertex="1">
          <mxGeometry x="-890" y="221" width="330" height="210" as="geometry" />
        </mxCell>
        <mxCell id="pEyvCu6OSAiKHPFv_T5z-44" value="&lt;div&gt;+ GetActorContainer(): ActorContainer&lt;/div&gt;+ GetInput(): InputBase&lt;div&gt;+ GetRenderer(): RendererBase&lt;/div&gt;&lt;div&gt;&lt;span style=&quot;background-color: initial;&quot;&gt;+ GetWindow(): WindowBase&lt;/span&gt;&lt;br&gt;&lt;/div&gt;&lt;div&gt;+ IsAlive(): bool&lt;/div&gt;&lt;div&gt;+ Kill(): void&lt;/div&gt;&lt;div&gt;# Initialize(): void&lt;/div&gt;&lt;div&gt;# Process(): void&lt;/div&gt;&lt;div&gt;&lt;span style=&quot;background-color: initial;&quot;&gt;- SetActorContainer(actorContainer: ActorContainer): void&lt;/span&gt;&lt;/div&gt;&lt;div&gt;&lt;span style=&quot;background-color: initial;&quot;&gt;-&lt;/span&gt;&lt;span style=&quot;background-color: initial;&quot;&gt;&amp;nbsp;SetInput(&lt;/span&gt;&lt;span style=&quot;background-color: initial;&quot;&gt;input: InputBase&lt;/span&gt;&lt;span style=&quot;background-color: initial;&quot;&gt;): void&lt;/span&gt;&lt;br&gt;&lt;/div&gt;&lt;div&gt;&lt;span style=&quot;background-color: initial;&quot;&gt;- SetRenderer(renderer: RendererBase): void&lt;/span&gt;&lt;/div&gt;&lt;div&gt;&lt;span style=&quot;background-color: initial;&quot;&gt;- SetWindow(window: WindowBase): void&lt;/span&gt;&lt;br&gt;&lt;/div&gt;" style="text;strokeColor=none;fillColor=none;align=left;verticalAlign=top;spacingLeft=4;spacingRight=4;overflow=hidden;rotatable=0;points=[[0,0.5],[1,0.5]];portConstraint=eastwest;whiteSpace=wrap;html=1;" parent="pEyvCu6OSAiKHPFv_T5z-41" vertex="1">
          <mxGeometry y="26" width="330" height="184" as="geometry" />
        </mxCell>
        <mxCell id="pEyvCu6OSAiKHPFv_T5z-45" value="GameLogicBase" style="swimlane;fontStyle=1;align=center;verticalAlign=top;childLayout=stackLayout;horizontal=1;startSize=26;horizontalStack=0;resizeParent=1;resizeParentMax=0;resizeLast=0;collapsible=1;marginBottom=0;whiteSpace=wrap;html=1;" parent="1" vertex="1">
          <mxGeometry x="-530" y="130" width="470" height="180" as="geometry" />
        </mxCell>
        <mxCell id="pEyvCu6OSAiKHPFv_T5z-48" value="&lt;div&gt;&lt;span style=&quot;background-color: initial;&quot;&gt;+ GetActorContainer(): ActorContainer&lt;/span&gt;&lt;/div&gt;&lt;div&gt;&lt;span style=&quot;background-color: initial;&quot;&gt;+ GetInput(): InputBase&lt;/span&gt;&lt;br&gt;&lt;/div&gt;&lt;div&gt;&lt;span style=&quot;background-color: initial;&quot;&gt;+ GetRenderer(): Renderer&lt;/span&gt;&lt;/div&gt;&lt;div&gt;&lt;span style=&quot;background-color: initial;&quot;&gt;+ GetWindow(): Window&lt;/span&gt;&lt;br&gt;&lt;/div&gt;&lt;div&gt;&lt;div&gt;&lt;span style=&quot;background-color: initial;&quot;&gt;# virtual Initialize(): void&lt;/span&gt;&lt;br&gt;&lt;/div&gt;&lt;div&gt;&lt;span style=&quot;background-color: initial;&quot;&gt;# virtual Process(): void&lt;/span&gt;&lt;/div&gt;&lt;/div&gt;&lt;div&gt;- SetActorContainer(actorContainer: ActorContainer): void&lt;span style=&quot;background-color: initial;&quot;&gt;&lt;br&gt;&lt;/span&gt;&lt;/div&gt;&lt;div&gt;- SetInput(input: InputBase): void&lt;span style=&quot;background-color: initial;&quot;&gt;&lt;br&gt;&lt;/span&gt;&lt;/div&gt;&lt;div&gt;- SetRenderer(renderer: RendererBase): void&lt;/div&gt;&lt;div&gt;- SetWindow(window: WindowBase): void&lt;/div&gt;" style="text;strokeColor=none;fillColor=none;align=left;verticalAlign=top;spacingLeft=4;spacingRight=4;overflow=hidden;rotatable=0;points=[[0,0.5],[1,0.5]];portConstraint=eastwest;whiteSpace=wrap;html=1;" parent="pEyvCu6OSAiKHPFv_T5z-45" vertex="1">
          <mxGeometry y="26" width="470" height="154" as="geometry" />
        </mxCell>
        <mxCell id="pEyvCu6OSAiKHPFv_T5z-59" value="" style="endArrow=diamondThin;endFill=1;endSize=24;html=1;rounded=0;entryX=0.271;entryY=1.014;entryDx=0;entryDy=0;entryPerimeter=0;" parent="1" source="pEyvCu6OSAiKHPFv_T5z-62" target="pEyvCu6OSAiKHPFv_T5z-4" edge="1">
          <mxGeometry width="160" relative="1" as="geometry">
            <mxPoint x="-130" y="420" as="sourcePoint" />
            <mxPoint x="30" y="420" as="targetPoint" />
            <Array as="points">
              <mxPoint x="70" y="395" />
            </Array>
          </mxGeometry>
        </mxCell>
        <mxCell id="pEyvCu6OSAiKHPFv_T5z-61" value="Friend" style="endArrow=block;endSize=16;endFill=0;html=1;rounded=0;exitX=0.709;exitY=1.001;exitDx=0;exitDy=0;exitPerimeter=0;" parent="1" source="pEyvCu6OSAiKHPFv_T5z-44" target="pEyvCu6OSAiKHPFv_T5z-68" edge="1">
          <mxGeometry y="10" width="160" relative="1" as="geometry">
            <mxPoint x="-656" y="430" as="sourcePoint" />
            <mxPoint x="-355" y="447.5" as="targetPoint" />
            <mxPoint as="offset" />
            <Array as="points">
              <mxPoint x="-656" y="470" />
              <mxPoint x="-355" y="469.5" />
            </Array>
          </mxGeometry>
        </mxCell>
        <mxCell id="pEyvCu6OSAiKHPFv_T5z-62" value="ActorContainerModule" style="swimlane;fontStyle=1;align=center;verticalAlign=top;childLayout=stackLayout;horizontal=1;startSize=26;horizontalStack=0;resizeParent=1;resizeParentMax=0;resizeLast=0;collapsible=1;marginBottom=0;whiteSpace=wrap;html=1;" parent="1" vertex="1">
          <mxGeometry x="-130" y="369" width="160" height="52" as="geometry" />
        </mxCell>
        <mxCell id="pEyvCu6OSAiKHPFv_T5z-65" value="+ Process(): void" style="text;strokeColor=none;fillColor=none;align=left;verticalAlign=top;spacingLeft=4;spacingRight=4;overflow=hidden;rotatable=0;points=[[0,0.5],[1,0.5]];portConstraint=eastwest;whiteSpace=wrap;html=1;" parent="pEyvCu6OSAiKHPFv_T5z-62" vertex="1">
          <mxGeometry y="26" width="160" height="26" as="geometry" />
        </mxCell>
        <mxCell id="pEyvCu6OSAiKHPFv_T5z-67" value="Extends" style="endArrow=block;endSize=16;endFill=0;html=1;rounded=0;" parent="1" source="pEyvCu6OSAiKHPFv_T5z-62" target="pEyvCu6OSAiKHPFv_T5z-68" edge="1">
          <mxGeometry width="160" relative="1" as="geometry">
            <mxPoint x="-480" y="540" as="sourcePoint" />
            <mxPoint x="-250" y="394.9999999999999" as="targetPoint" />
          </mxGeometry>
        </mxCell>
        <mxCell id="pEyvCu6OSAiKHPFv_T5z-68" value="ActorContainer" style="swimlane;fontStyle=1;align=center;verticalAlign=top;childLayout=stackLayout;horizontal=1;startSize=26;horizontalStack=0;resizeParent=1;resizeParentMax=0;resizeLast=0;collapsible=1;marginBottom=0;whiteSpace=wrap;html=1;" parent="1" vertex="1">
          <mxGeometry x="-460" y="352" width="210" height="86" as="geometry" />
        </mxCell>
        <mxCell id="pEyvCu6OSAiKHPFv_T5z-69" value="# actor: list&amp;lt;Actor&amp;gt;" style="text;strokeColor=none;fillColor=none;align=left;verticalAlign=top;spacingLeft=4;spacingRight=4;overflow=hidden;rotatable=0;points=[[0,0.5],[1,0.5]];portConstraint=eastwest;whiteSpace=wrap;html=1;" parent="pEyvCu6OSAiKHPFv_T5z-68" vertex="1">
          <mxGeometry y="26" width="210" height="26" as="geometry" />
        </mxCell>
        <mxCell id="pEyvCu6OSAiKHPFv_T5z-70" value="" style="line;strokeWidth=1;fillColor=none;align=left;verticalAlign=middle;spacingTop=-1;spacingLeft=3;spacingRight=3;rotatable=0;labelPosition=right;points=[];portConstraint=eastwest;strokeColor=inherit;" parent="pEyvCu6OSAiKHPFv_T5z-68" vertex="1">
          <mxGeometry y="52" width="210" height="8" as="geometry" />
        </mxCell>
        <mxCell id="pEyvCu6OSAiKHPFv_T5z-71" value="+ RegisterActor(actor: Actor): void" style="text;strokeColor=none;fillColor=none;align=left;verticalAlign=top;spacingLeft=4;spacingRight=4;overflow=hidden;rotatable=0;points=[[0,0.5],[1,0.5]];portConstraint=eastwest;whiteSpace=wrap;html=1;" parent="pEyvCu6OSAiKHPFv_T5z-68" vertex="1">
          <mxGeometry y="60" width="210" height="26" as="geometry" />
        </mxCell>
        <mxCell id="pEyvCu6OSAiKHPFv_T5z-76" value="" style="endArrow=diamondThin;endFill=1;endSize=24;html=1;rounded=0;" parent="1" source="pEyvCu6OSAiKHPFv_T5z-45" target="pEyvCu6OSAiKHPFv_T5z-1" edge="1">
          <mxGeometry width="160" relative="1" as="geometry">
            <mxPoint x="-60" y="215.00000000000023" as="sourcePoint" />
            <mxPoint x="-110" y="310" as="targetPoint" />
          </mxGeometry>
        </mxCell>
        <mxCell id="pEyvCu6OSAiKHPFv_T5z-78" value="Friend" style="endArrow=block;endSize=16;endFill=0;html=1;rounded=0;entryX=0.201;entryY=-0.002;entryDx=0;entryDy=0;entryPerimeter=0;" parent="1" source="pEyvCu6OSAiKHPFv_T5z-45" target="pEyvCu6OSAiKHPFv_T5z-1" edge="1">
          <mxGeometry y="10" width="160" relative="1" as="geometry">
            <mxPoint x="-939" y="321" as="sourcePoint" />
            <mxPoint x="-345" y="448" as="targetPoint" />
            <mxPoint as="offset" />
            <Array as="points">
              <mxPoint x="-295" y="90" />
              <mxPoint x="50" y="90" />
            </Array>
          </mxGeometry>
        </mxCell>
        <mxCell id="pEyvCu6OSAiKHPFv_T5z-84" value="SpriteRendererBase" style="swimlane;fontStyle=1;align=center;verticalAlign=top;childLayout=stackLayout;horizontal=1;startSize=26;horizontalStack=0;resizeParent=1;resizeParentMax=0;resizeLast=0;collapsible=1;marginBottom=0;whiteSpace=wrap;html=1;" parent="1" vertex="1">
          <mxGeometry x="890" y="160" width="220" height="110" as="geometry" />
        </mxCell>
        <mxCell id="pEyvCu6OSAiKHPFv_T5z-85" value="- sprites: list&amp;lt;Sprite&amp;gt;&lt;div&gt;- cameraSystem: CameraSystem&lt;/div&gt;" style="text;strokeColor=none;fillColor=none;align=left;verticalAlign=top;spacingLeft=4;spacingRight=4;overflow=hidden;rotatable=0;points=[[0,0.5],[1,0.5]];portConstraint=eastwest;whiteSpace=wrap;html=1;" parent="pEyvCu6OSAiKHPFv_T5z-84" vertex="1">
          <mxGeometry y="26" width="220" height="34" as="geometry" />
        </mxCell>
        <mxCell id="pEyvCu6OSAiKHPFv_T5z-86" value="" style="line;strokeWidth=1;fillColor=none;align=left;verticalAlign=middle;spacingTop=-1;spacingLeft=3;spacingRight=3;rotatable=0;labelPosition=right;points=[];portConstraint=eastwest;strokeColor=inherit;" parent="pEyvCu6OSAiKHPFv_T5z-84" vertex="1">
          <mxGeometry y="60" width="220" height="8" as="geometry" />
        </mxCell>
        <mxCell id="pEyvCu6OSAiKHPFv_T5z-87" value="+ CreateSprite(): SpriteBase&lt;div&gt;+ GetCameraSystem(): CameraSystem&lt;/div&gt;" style="text;strokeColor=none;fillColor=none;align=left;verticalAlign=top;spacingLeft=4;spacingRight=4;overflow=hidden;rotatable=0;points=[[0,0.5],[1,0.5]];portConstraint=eastwest;whiteSpace=wrap;html=1;" parent="pEyvCu6OSAiKHPFv_T5z-84" vertex="1">
          <mxGeometry y="68" width="220" height="42" as="geometry" />
        </mxCell>
        <mxCell id="pEyvCu6OSAiKHPFv_T5z-88" value="SpriteBase" style="swimlane;fontStyle=1;align=center;verticalAlign=top;childLayout=stackLayout;horizontal=1;startSize=26;horizontalStack=0;resizeParent=1;resizeParentMax=0;resizeLast=0;collapsible=1;marginBottom=0;whiteSpace=wrap;html=1;" parent="1" vertex="1">
          <mxGeometry x="920" y="369" width="160" height="52" as="geometry" />
        </mxCell>
        <mxCell id="pEyvCu6OSAiKHPFv_T5z-91" value="+ Draw(): void" style="text;strokeColor=none;fillColor=none;align=left;verticalAlign=top;spacingLeft=4;spacingRight=4;overflow=hidden;rotatable=0;points=[[0,0.5],[1,0.5]];portConstraint=eastwest;whiteSpace=wrap;html=1;" parent="pEyvCu6OSAiKHPFv_T5z-88" vertex="1">
          <mxGeometry y="26" width="160" height="26" as="geometry" />
        </mxCell>
        <mxCell id="pEyvCu6OSAiKHPFv_T5z-92" value="" style="endArrow=diamondThin;endFill=1;endSize=24;html=1;rounded=0;" parent="1" source="pEyvCu6OSAiKHPFv_T5z-84" target="pEyvCu6OSAiKHPFv_T5z-21" edge="1">
          <mxGeometry width="160" relative="1" as="geometry">
            <mxPoint x="630" y="290" as="sourcePoint" />
            <mxPoint x="790" y="290" as="targetPoint" />
          </mxGeometry>
        </mxCell>
        <mxCell id="pEyvCu6OSAiKHPFv_T5z-99" value="" style="endArrow=diamondThin;endFill=0;endSize=24;html=1;rounded=0;" parent="1" source="pEyvCu6OSAiKHPFv_T5z-88" target="pEyvCu6OSAiKHPFv_T5z-84" edge="1">
          <mxGeometry width="160" relative="1" as="geometry">
            <mxPoint x="780" y="290" as="sourcePoint" />
            <mxPoint x="940" y="290" as="targetPoint" />
          </mxGeometry>
        </mxCell>
        <mxCell id="pEyvCu6OSAiKHPFv_T5z-100" value="" style="endArrow=diamondThin;endFill=0;endSize=24;html=1;rounded=0;" parent="1" target="pEyvCu6OSAiKHPFv_T5z-68" edge="1">
          <mxGeometry width="160" relative="1" as="geometry">
            <mxPoint x="-560" y="395" as="sourcePoint" />
            <mxPoint x="-400" y="410" as="targetPoint" />
          </mxGeometry>
        </mxCell>
        <mxCell id="pEyvCu6OSAiKHPFv_T5z-101" value="SpriteActor" style="swimlane;fontStyle=1;align=center;verticalAlign=top;childLayout=stackLayout;horizontal=1;startSize=26;horizontalStack=0;resizeParent=1;resizeParentMax=0;resizeLast=0;collapsible=1;marginBottom=0;whiteSpace=wrap;html=1;" parent="1" vertex="1">
          <mxGeometry x="-805" y="490" width="160" height="52" as="geometry" />
        </mxCell>
        <mxCell id="pEyvCu6OSAiKHPFv_T5z-102" value="- sprite: SpriteBase" style="text;strokeColor=none;fillColor=none;align=left;verticalAlign=top;spacingLeft=4;spacingRight=4;overflow=hidden;rotatable=0;points=[[0,0.5],[1,0.5]];portConstraint=eastwest;whiteSpace=wrap;html=1;" parent="pEyvCu6OSAiKHPFv_T5z-101" vertex="1">
          <mxGeometry y="26" width="160" height="26" as="geometry" />
        </mxCell>
        <mxCell id="pEyvCu6OSAiKHPFv_T5z-105" value="Extends" style="endArrow=block;endSize=16;endFill=0;html=1;rounded=0;" parent="1" source="pEyvCu6OSAiKHPFv_T5z-101" target="pEyvCu6OSAiKHPFv_T5z-44" edge="1">
          <mxGeometry width="160" relative="1" as="geometry">
            <mxPoint x="-900" y="530" as="sourcePoint" />
            <mxPoint x="-740" y="530" as="targetPoint" />
          </mxGeometry>
        </mxCell>
        <mxCell id="pEyvCu6OSAiKHPFv_T5z-106" value="" style="endArrow=diamondThin;endFill=1;endSize=24;html=1;rounded=0;" parent="1" source="pEyvCu6OSAiKHPFv_T5z-88" target="pEyvCu6OSAiKHPFv_T5z-101" edge="1">
          <mxGeometry width="160" relative="1" as="geometry">
            <mxPoint x="-660" y="610" as="sourcePoint" />
            <mxPoint x="-500" y="610" as="targetPoint" />
            <Array as="points">
              <mxPoint x="1000" y="512" />
            </Array>
          </mxGeometry>
        </mxCell>
        <mxCell id="YkqR3kPHBxW0k3-1XHl0-1" value="Camera" style="swimlane;fontStyle=1;align=center;verticalAlign=top;childLayout=stackLayout;horizontal=1;startSize=26;horizontalStack=0;resizeParent=1;resizeParentMax=0;resizeLast=0;collapsible=1;marginBottom=0;whiteSpace=wrap;html=1;" vertex="1" parent="1">
          <mxGeometry x="1155" y="330" width="220" height="220" as="geometry" />
        </mxCell>
        <mxCell id="YkqR3kPHBxW0k3-1XHl0-2" value="&lt;div&gt;&lt;span style=&quot;background-color: initial;&quot;&gt;- angle: float&lt;/span&gt;&lt;br&gt;&lt;/div&gt;&lt;div&gt;- area: Vector2&lt;span style=&quot;background-color: initial;&quot;&gt;&lt;br&gt;&lt;/span&gt;&lt;/div&gt;&lt;div&gt;- center: Vector2&lt;/div&gt;" style="text;strokeColor=none;fillColor=none;align=left;verticalAlign=top;spacingLeft=4;spacingRight=4;overflow=hidden;rotatable=0;points=[[0,0.5],[1,0.5]];portConstraint=eastwest;whiteSpace=wrap;html=1;" vertex="1" parent="YkqR3kPHBxW0k3-1XHl0-1">
          <mxGeometry y="26" width="220" height="54" as="geometry" />
        </mxCell>
        <mxCell id="YkqR3kPHBxW0k3-1XHl0-3" value="" style="line;strokeWidth=1;fillColor=none;align=left;verticalAlign=middle;spacingTop=-1;spacingLeft=3;spacingRight=3;rotatable=0;labelPosition=right;points=[];portConstraint=eastwest;strokeColor=inherit;" vertex="1" parent="YkqR3kPHBxW0k3-1XHl0-1">
          <mxGeometry y="80" width="220" height="8" as="geometry" />
        </mxCell>
        <mxCell id="YkqR3kPHBxW0k3-1XHl0-4" value="&lt;div&gt;+ GetAngle(): float&lt;/div&gt;&lt;div&gt;+ GetArea(): Vector2&lt;/div&gt;&lt;div&gt;+ GetCenter(): Vector2&lt;/div&gt;&lt;div&gt;+ SetAngle(angle: float): void&lt;/div&gt;&lt;div&gt;+ SetArea(area: Vector2): void&lt;/div&gt;&lt;div&gt;+ SetCenter(center: Vector2): void&lt;/div&gt;&lt;div&gt;+ SetHorizontalArea(float: hArea): void&lt;/div&gt;&lt;div&gt;+ SetVerticalArea(float: vArea): void&lt;/div&gt;" style="text;strokeColor=none;fillColor=none;align=left;verticalAlign=top;spacingLeft=4;spacingRight=4;overflow=hidden;rotatable=0;points=[[0,0.5],[1,0.5]];portConstraint=eastwest;whiteSpace=wrap;html=1;" vertex="1" parent="YkqR3kPHBxW0k3-1XHl0-1">
          <mxGeometry y="88" width="220" height="132" as="geometry" />
        </mxCell>
        <mxCell id="YkqR3kPHBxW0k3-1XHl0-6" value="CameraSystem" style="swimlane;fontStyle=1;align=center;verticalAlign=top;childLayout=stackLayout;horizontal=1;startSize=26;horizontalStack=0;resizeParent=1;resizeParentMax=0;resizeLast=0;collapsible=1;marginBottom=0;whiteSpace=wrap;html=1;" vertex="1" parent="1">
          <mxGeometry x="1170" y="155" width="190" height="120" as="geometry" />
        </mxCell>
        <mxCell id="YkqR3kPHBxW0k3-1XHl0-7" value="- current: Camera&lt;div&gt;- default: Camera&lt;/div&gt;" style="text;strokeColor=none;fillColor=none;align=left;verticalAlign=top;spacingLeft=4;spacingRight=4;overflow=hidden;rotatable=0;points=[[0,0.5],[1,0.5]];portConstraint=eastwest;whiteSpace=wrap;html=1;" vertex="1" parent="YkqR3kPHBxW0k3-1XHl0-6">
          <mxGeometry y="26" width="190" height="34" as="geometry" />
        </mxCell>
        <mxCell id="YkqR3kPHBxW0k3-1XHl0-8" value="" style="line;strokeWidth=1;fillColor=none;align=left;verticalAlign=middle;spacingTop=-1;spacingLeft=3;spacingRight=3;rotatable=0;labelPosition=right;points=[];portConstraint=eastwest;strokeColor=inherit;" vertex="1" parent="YkqR3kPHBxW0k3-1XHl0-6">
          <mxGeometry y="60" width="190" height="8" as="geometry" />
        </mxCell>
        <mxCell id="YkqR3kPHBxW0k3-1XHl0-9" value="&lt;div&gt;+ GetCurrent(): Camera&lt;/div&gt;+ GetDefault(): Camera&lt;div&gt;+ Switch(camera: Camera): void&lt;/div&gt;" style="text;strokeColor=none;fillColor=none;align=left;verticalAlign=top;spacingLeft=4;spacingRight=4;overflow=hidden;rotatable=0;points=[[0,0.5],[1,0.5]];portConstraint=eastwest;whiteSpace=wrap;html=1;" vertex="1" parent="YkqR3kPHBxW0k3-1XHl0-6">
          <mxGeometry y="68" width="190" height="52" as="geometry" />
        </mxCell>
        <mxCell id="YkqR3kPHBxW0k3-1XHl0-21" value="&lt;p style=&quot;margin:0px;margin-top:4px;text-align:center;&quot;&gt;&lt;b&gt;OpenGLSpriteRenderer&lt;/b&gt;&lt;/p&gt;" style="verticalAlign=top;align=left;overflow=fill;html=1;whiteSpace=wrap;" vertex="1" parent="1">
          <mxGeometry x="925" y="100" width="150" height="20" as="geometry" />
        </mxCell>
        <mxCell id="YkqR3kPHBxW0k3-1XHl0-22" value="" style="endArrow=block;dashed=1;endFill=0;endSize=12;html=1;rounded=0;" edge="1" parent="1" source="pEyvCu6OSAiKHPFv_T5z-84" target="YkqR3kPHBxW0k3-1XHl0-21">
          <mxGeometry width="160" relative="1" as="geometry">
            <mxPoint x="720" y="290" as="sourcePoint" />
            <mxPoint x="880" y="290" as="targetPoint" />
          </mxGeometry>
        </mxCell>
        <mxCell id="YkqR3kPHBxW0k3-1XHl0-23" value="" style="endArrow=diamondThin;endFill=1;endSize=24;html=1;rounded=0;" edge="1" parent="1" source="YkqR3kPHBxW0k3-1XHl0-6" target="pEyvCu6OSAiKHPFv_T5z-84">
          <mxGeometry width="160" relative="1" as="geometry">
            <mxPoint x="1060" y="290" as="sourcePoint" />
            <mxPoint x="1220" y="290" as="targetPoint" />
          </mxGeometry>
        </mxCell>
        <mxCell id="YkqR3kPHBxW0k3-1XHl0-24" value="" style="endArrow=diamondThin;endFill=0;endSize=24;html=1;rounded=0;" edge="1" parent="1" source="YkqR3kPHBxW0k3-1XHl0-1" target="YkqR3kPHBxW0k3-1XHl0-6">
          <mxGeometry width="160" relative="1" as="geometry">
            <mxPoint x="1010" y="420" as="sourcePoint" />
            <mxPoint x="1170" y="420" as="targetPoint" />
          </mxGeometry>
        </mxCell>
      </root>
    </mxGraphModel>
  </diagram>
</mxfile>
